<?xml version="1.0" encoding="utf-8"?>
<!-- Generator: Adobe Illustrator 16.0.0, SVG Export Plug-In . SVG Version: 6.00 Build 0)  -->
<!DOCTYPE svg PUBLIC "-//W3C//DTD SVG 1.1//EN" "http://www.w3.org/Graphics/SVG/1.1/DTD/svg11.dtd">
<svg version="1.1" id="Layer_1" xmlns="http://www.w3.org/2000/svg" xmlns:xlink="http://www.w3.org/1999/xlink" x="0px" y="0px"
	 width="332.667px" height="96.667px" viewBox="0 0 332.667 96.667" enable-background="new 0 0 332.667 96.667"
	 xml:space="preserve">
<path fill-rule="evenodd" clip-rule="evenodd" d="M69.11,68.56c0.987,0.512,1.975,0.611,2.982,0.66
	c1.003,0.047,2.003,0.15,3.007,0.207c0.244,0.014,0.51-0.025,0.74-0.105c1.742-0.607,3.445-1.352,5.221-1.82
	c1.926-0.506,3.629-1.439,5.363-2.33c1.791-0.916,3.529-1.936,5.346-2.797c1.365-0.648,2.809-1.133,4.227-1.668
	c0.891-0.336,1.09-0.371,0.33-1.314c-0.857-1.064-2.084-1.451-3.426-1.453c-1.799,0-3.359,0.754-4.92,1.549
	c-2.473,1.262-4.941,2.541-7.473,3.678c-1.947,0.873-4.002,1.506-5.986,2.303C72.616,66.235,70.866,67.296,69.11,68.56z"/>
<g>
	<circle fill="#F39F3C" cx="66.615" cy="41.427" r="5.351"/>
	<g>
		<path fill="#1A171B" d="M59.396,33.622l-7.062-7.061l-0.707,0.707l7.068,7.066C58.918,34.087,59.15,33.849,59.396,33.622z"/>
		<path fill="#1A171B" d="M74.537,34.335l7.066-7.066l-0.707-0.707l-7.061,7.061C74.08,33.849,74.314,34.087,74.537,34.335z"/>
		<path fill="#1A171B" d="M66.615,30.776c0.17,0,0.334,0.018,0.5,0.025v-9.949h-1v9.949C66.283,30.794,66.447,30.776,66.615,30.776z
			"/>
		<path fill="#1A171B" d="M55.969,41.427c0-0.127,0.014-0.252,0.02-0.377H45.92v1H56C55.988,41.843,55.969,41.638,55.969,41.427z"/>
		<path fill="#1A171B" d="M73.707,49.349l7.189,7.189l0.707-0.707l-7.184-7.184C74.193,48.892,73.957,49.126,73.707,49.349z"/>
		<path fill="#1A171B" d="M77.244,41.05c0.004,0.125,0.02,0.25,0.02,0.377c0,0.211-0.02,0.416-0.031,0.623h10.08v-1H77.244z"/>
		<path fill="#1A171B" d="M58.811,48.647l-7.184,7.184l0.707,0.707l7.189-7.189C59.275,49.126,59.037,48.892,58.811,48.647z"/>
		<path fill="#1A171B" d="M66.615,52.077c-0.168,0-0.332-0.018-0.5-0.025v10.193h1V52.052C66.949,52.06,66.785,52.077,66.615,52.077
			z"/>
	</g>
	<polygon fill="none" stroke="#F39F3C" stroke-width="4" stroke-miterlimit="10" points="56.07,15.968 41.155,30.882 41.155,51.974 
		56.07,66.888 77.162,66.888 92.076,51.974 92.076,30.882 77.162,15.968 	"/>
</g>
<text transform="matrix(1 0 0 1 108.418 70.7168)" fill="#1A171B" font-family="'MyriadPro-Regular'" font-size="72.784">PLAN</text>
<text transform="matrix(1 0 0 1 273.2515 70.7168)" fill="#F39F3C" font-family="'MyriadPro-Bold'" font-size="72.784">B</text>
<g>
	<g id="_x33_1vMt2_3_">
		<g>
			<g>
				<polygon fill-rule="evenodd" clip-rule="evenodd" points="21.391,69.237 21.404,69.228 21.404,69.228 				"/>
				<path fill-rule="evenodd" clip-rule="evenodd" d="M102.648,74.397c-0.719-1.516-2.064-2.17-3.586-2.533
					c-1.758-0.42-3.553-0.461-5.352-0.344c-3.041,0.201-6.025,0.756-8.975,1.512c-0.051,0.014-0.096,0.051-0.121,0.064
					c0.305,0.693,0.656,1.32,0.859,1.992c0.52,1.727-0.146,2.764-1.926,3.094c-2.061,0.385-4.127,0.15-6.191,0.041
					c-1.791-0.094-3.59-0.146-5.373-0.344c-1.007-0.111-1.978-0.525-2.981-0.715c-2.174-0.41-4.35-0.844-6.544-1.102
					c-0.955-0.111-1.958,0.186-2.938,0.299c-0.262,0.031-0.522,0.076-0.784,0.113c-0.012-0.064-0.023-0.129-0.035-0.195
					c0.685-0.137,1.37-0.27,2.054-0.41c2.647-0.551,5.162,0.184,7.689,0.791c1.35,0.324,2.678,0.846,4.044,0.977
					c2.604,0.25,5.227,0.301,7.842,0.398c0.893,0.035,1.793-0.008,2.684-0.076c0.393-0.031,0.789-0.172,1.15-0.336
					c0.85-0.385,1.178-1.197,0.936-2.1c-0.555-2.062-2.059-3.221-3.879-4.062c-2.242-1.035-4.629-1.594-7.074-1.652
					c-3.474-0.084-6.723-0.99-9.87-2.334c-1.064-0.455-2.02-1.162-3.028-1.748c-4.379-2.543-8.902-4.775-13.81-6.117
					c-2.247-0.613-4.535-1.041-6.89-0.916c-1.457,0.078-2.784,0.615-4.092,1.176c-3.341,1.434-6.469,3.271-9.438,5.348
					c-1.885,1.316-3.755,2.656-5.614,4.01c3.315,4.824,7.4,9.078,12.079,12.584c-0.002,0.002-0.004,0.004-0.005,0.006
					c0.494-0.414,0.993-0.822,1.492-1.225c1.373-1.109,2.881-2.098,4.741-2.066c1.35,0.021,2.722,0.121,4.04,0.398
					c4.641,0.975,9.256,2.07,13.893,3.062c2.737,0.586,5.486,1.131,8.25,1.57c1.664,0.264,3.317-0.082,4.909-0.643
					c2.402-0.846,4.914-1.135,7.417-1.475c2.283-0.311,4.586-0.543,6.838-1.004c1.549-0.316,3.029-0.963,4.539-1.465
					c2.945-0.979,5.979-1.57,9.02-2.158c1.139-0.221,2.238-0.652,3.355-0.994c0.119-0.035,0.232-0.107,0.338-0.176
					C102.951,75.222,102.984,75.103,102.648,74.397z"/>
			</g>
			<path fill-rule="evenodd" clip-rule="evenodd" d="M103.156,64.017c-0.326-0.725-0.535-1.439-0.932-2.027
				c-0.977-1.447-2.473-1.73-4.045-1.41c-1.354,0.275-2.725,0.643-3.973,1.217c-3.236,1.488-6.428,3.074-9.598,4.699
				c-1.756,0.9-3.635,1.422-5.477,2.061c-0.895,0.311-1.789,0.621-2.676,1.027c0.539,0.059,1.08,0.102,1.615,0.182
				c2.197,0.324,4.111,1.25,5.777,2.711c0.137,0.119,0.396,0.186,0.576,0.152c1.113-0.201,2.23-0.406,3.328-0.684
				c0.391-0.1,0.729-0.406,1.088-0.619c2.695-1.584,5.355-3.23,8.096-4.73c1.578-0.865,3.281-1.504,4.939-2.223
				C102.221,64.222,102.607,64.165,103.156,64.017z"/>
		</g>
	</g>
</g>
</svg>
